<svg xmlns="http://www.w3.org/2000/svg" xmlns:xlink="http://www.w3.org/1999/xlink" width="428" height="212.211" viewBox="0 0 428 212.211"><defs><style>.a{fill:#6a0e0e;}.b{clip-path:url(#a);}.c{fill:#fbfbfb;}.d{fill:#fff;}.e{fill:#dcdcdc;}.f{fill:#484848;}.g{opacity:0.24;}.h,.i{fill:none;stroke-width:2px;}.h{stroke:#484848;}.i{stroke:#707070;stroke-linecap:round;opacity:0.44;}</style><clipPath id="a"><rect class="a" width="428" height="191" transform="translate(38.028 221.278)"/></clipPath></defs><g transform="translate(-469 -145)"><g class="b" transform="translate(430.972 -76.278)"><path class="c" d="M208,0C322.875,0,416,82.827,416,185S322.875,370,208,370,0,287.173,0,185,93.125,0,208,0Z" transform="translate(43.028 238.278)"/></g><g transform="matrix(0.891, 0.454, -0.454, 0.891, 663.384, 213.254)"><g transform="translate(33.017 27.047)"><circle class="d" cx="5.702" cy="5.702" r="5.702" transform="translate(0)"/></g><path class="e" d="M10.8,37.268c-6.76,0-10.8-4.036-10.8-10.8V10.8C0,4.036,4.036,0,10.8,0H36.719c6.76,0,10.8,4.036,10.8,10.8V26.472c0,6.76-4.036,10.8-10.8,10.8ZM34.682,8.543a5.7,5.7,0,1,0,5.7,5.7h0A5.722,5.722,0,0,0,34.682,8.543Zm-21.828,0a5.7,5.7,0,1,0,5.7,5.7h0A5.722,5.722,0,0,0,12.854,8.543Z" transform="translate(25.865 18.485)"/><circle class="f" cx="3.272" cy="3.272" r="3.272" transform="translate(24.826 97.528)"/><g transform="translate(17.153 26.675)"><path class="e" d="M6.184,17.419a8.7,8.7,0,0,1,0-16.655L8.712,0V18.2Z"/><path class="e" d="M0,0,2.528.764A8.7,8.7,0,0,1,8.337,11.61a8.7,8.7,0,0,1-5.81,5.81L0,18.183Z" transform="translate(56.247)"/></g><g transform="translate(54.845 27.047)"><circle class="d" cx="5.702" cy="5.702" r="5.702"/><circle class="d" cx="3.742" cy="3.742" r="3.742" transform="translate(1.959 1.959)"/></g><g transform="translate(15.096 2.065)"><circle class="e" cx="4.428" cy="4.428" r="4.428" transform="translate(30.108)"/><path class="e" d="M.118,0,0,30.88H47.438V.176Z" transform="translate(10.749 59.39)"/><path class="e" d="M8.711,16.606A8.308,8.308,0,0,1,7.9.01q.4-.019.807,0h51.65a8.308,8.308,0,0,1,.807,16.6q-.4.019-.807,0ZM56.09,5.046a3.272,3.272,0,1,0,3.272,3.272h0A3.272,3.272,0,0,0,56.09,5.046Zm-21.554,0a3.272,3.272,0,1,0,3.272,3.272h0a3.272,3.272,0,0,0-3.272-3.272Zm-21.554,0a3.272,3.272,0,1,0,3.272,3.272h0A3.272,3.272,0,0,0,12.983,5.046Z" transform="translate(0 90.417)"/></g><g transform="translate(46.36 97.528)"><circle class="f" cx="3.272" cy="3.272" r="3.272" transform="translate(21.534)"/><circle class="f" cx="3.272" cy="3.272" r="3.272" transform="translate(0)"/></g><g transform="translate(15.138 0)"><g transform="translate(39.519 26.86)"><path class="f" d="M5.89,11.779A5.89,5.89,0,1,0,0,5.89H0A5.9,5.9,0,0,0,5.89,11.779ZM5.89,3A2.877,2.877,0,1,1,3.013,5.875h0A2.877,2.877,0,0,1,5.89,3Z"/></g><path class="f" d="M8.826,46.289c.607,8.386,6.838,11.423,12.7,11.423H47.446c8.739,0,12.246-5.682,12.7-11.423a10.679,10.679,0,0,0-.49-21.1c-1.274-4.663-4.918-8.621-12.207-8.621H36.454v-4.1a6.388,6.388,0,1,0-3.919,0v3.919H21.523c-5.153,0-10.6,2.371-12.246,8.621a10.679,10.679,0,0,0-.451,21.1Zm51.4-16.969a6.74,6.74,0,0,1,0,12.913ZM32.006,6.591A2.469,2.469,0,1,1,34.571,8.96l-.076,0A2.488,2.488,0,0,1,32.006,6.591ZM12.686,29.32c0-7.7,5.545-8.837,8.837-8.837H47.446c7.7,0,8.837,5.545,8.837,8.837V45c0,3.311-1.156,8.837-8.837,8.837H21.523c-3.311,0-8.837-1.156-8.837-8.837Zm-3.919,0V42.233a6.74,6.74,0,0,1,0-12.913Z"/><path class="f" d="M23.787,0H1.959a1.959,1.959,0,0,0,0,3.919H23.787a1.959,1.959,0,0,0,0-3.919Z" transform="translate(21.621 45.505)"/></g><g transform="translate(33.017 27.047)"><circle class="d" cx="2.785" cy="2.785" r="2.785" transform="translate(2.917 2.917)"/><path class="f" d="M5.7,11.4A5.7,5.7,0,1,0,0,5.7H0A5.717,5.717,0,0,0,5.7,11.4Zm0-8.5A2.785,2.785,0,1,1,2.917,5.687h0A2.785,2.785,0,0,1,5.7,2.9Z"/></g><path class="d" d="M10.9,7.673H5.667l6.165-5.036A1.492,1.492,0,1,0,9.916.348L.556,8.059A1.486,1.486,0,0,0,1.492,10.7H6.944L.511,16.349a1.486,1.486,0,0,0,1.976,2.184l9.4-8.26a1.486,1.486,0,0,0-.981-2.6Z" transform="translate(42.45 67.539)"/><g transform="translate(0 59.487)"><path class="f" d="M93.053,13.47l-1.587-2.861C85.078-.618,72.264.009,71.186.009H28.079C26.923.009,14.128-.7,7.7,10.55L6.133,13.392A7.426,7.426,0,0,0,0,20.779a1.959,1.959,0,0,0,3.919,0,3.517,3.517,0,0,1,7.034,0,1.959,1.959,0,0,0,3.919,0,7.446,7.446,0,0,0-4.428-6.8l.784-1.411A17.184,17.184,0,0,1,23.944,4.241V30.968h-.1a10.267,10.267,0,0,0,0,20.515H75.458a10.267,10.267,0,0,0,.9-20.515q-.448-.019-.9,0h-.1V4.241a17.243,17.243,0,0,1,12.717,8.288l.8,1.45a7.445,7.445,0,0,0-4.467,6.8,1.959,1.959,0,0,0,3.919,0,3.517,3.517,0,1,1,7.034,0,1.959,1.959,0,0,0,3.919,0,7.427,7.427,0,0,0-6.231-7.309ZM27.922,3.928H71.441v27.04H27.922ZM75.458,34.965a6.349,6.349,0,1,1,0,12.678H23.807a6.349,6.349,0,0,1,0-12.678Z"/></g></g><g class="g" transform="translate(0.5)"><line class="h" x2="43.239" transform="translate(733.5 335.163)"/><line class="h" x2="43.239" transform="translate(788.5 335.163)"/><line class="h" x2="43.239" transform="translate(843.5 335.163)"/></g><g class="g" transform="translate(-310.5)"><line class="h" x2="43.239" transform="translate(788.5 335.163)"/><line class="h" x2="43.239" transform="translate(843.5 335.163)"/><line class="h" x2="43.239" transform="translate(898.5 335.163)"/></g><g transform="translate(597.108 205.843)"><line class="i" x2="14.91" y2="19.383" transform="translate(191.663 22.709) rotate(79)"/><line class="i" x2="14.91" y2="19.383" transform="matrix(0.974, -0.225, 0.225, 0.974, 5.139, 3.354)"/><line class="i" x1="4.473" y2="10.437" transform="translate(192.108 48.444) rotate(79)"/><line class="i" x1="4.473" y2="10.437" transform="matrix(0.974, -0.225, 0.225, 0.974, 30.842, 2.011)"/><line class="i" x1="14.91" y1="2.982" transform="translate(167.717 16.731) rotate(79)"/><line class="i" x1="14.91" y1="2.982" transform="matrix(0.974, -0.225, 0.225, 0.974, 0, 27.494)"/></g></g></svg>